<svg width="20" height="20" viewBox="0 0 20 20" fill="none" xmlns="http://www.w3.org/2000/svg">
<g opacity="0.3">
<path fill-rule="evenodd" clip-rule="evenodd" d="M11.8752 1.04703C11.8235 1.04352 11.7716 1.04175 11.7195 1.04175H6.66683C4.4807 1.04175 2.7085 2.81395 2.7085 5.00008V15.0001C2.7085 17.1862 4.4807 18.9584 6.66683 18.9584H13.3335C15.5196 18.9584 17.2918 17.1862 17.2918 15.0001V7.29175H14.1668C12.9012 7.29175 11.8752 6.26573 11.8752 5.00008V1.04703ZM6.04183 10.0001C6.04183 9.6549 6.32165 9.37508 6.66683 9.37508H13.3335C13.6787 9.37508 13.9585 9.6549 13.9585 10.0001C13.9585 10.3453 13.6787 10.6251 13.3335 10.6251H6.66683C6.32165 10.6251 6.04183 10.3453 6.04183 10.0001ZM6.66683 13.5417C6.32165 13.5417 6.04183 13.8216 6.04183 14.1667C6.04183 14.5119 6.32165 14.7917 6.66683 14.7917H10.0002C10.3453 14.7917 10.6252 14.5119 10.6252 14.1667C10.6252 13.8216 10.3453 13.5417 10.0002 13.5417H6.66683Z" fill="#EEEEEE"/>
<path d="M16.9348 6.04175C16.8822 5.95891 16.8241 5.87916 16.7607 5.80308L13.48 1.86633C13.3735 1.73842 13.2543 1.62372 13.1252 1.52343V5.00008C13.1252 5.57538 13.5915 6.04175 14.1668 6.04175H16.9348Z" fill="#EEEEEE"/>
</g>
<path fill-rule="evenodd" clip-rule="evenodd" d="M5.8335 10.0001C5.8335 9.53984 6.20659 9.16675 6.66683 9.16675H13.3335C13.7937 9.16675 14.1668 9.53984 14.1668 10.0001C14.1668 10.4603 13.7937 10.8334 13.3335 10.8334H6.66683C6.20659 10.8334 5.8335 10.4603 5.8335 10.0001Z" fill="#EEEEEE"/>
<path fill-rule="evenodd" clip-rule="evenodd" d="M5.8335 14.1666C5.8335 13.7063 6.20659 13.3333 6.66683 13.3333H10.0002C10.4604 13.3333 10.8335 13.7063 10.8335 14.1666C10.8335 14.6268 10.4604 14.9999 10.0002 14.9999H6.66683C6.20659 14.9999 5.8335 14.6268 5.8335 14.1666Z" fill="#EEEEEE"/>
</svg>
