<svg width="20" height="20" viewBox="0 0 20 20" fill="none" xmlns="http://www.w3.org/2000/svg">
<path fill-rule="evenodd" clip-rule="evenodd" d="M5.83333 3.125C4.33756 3.125 3.125 4.33756 3.125 5.83333V7.375C3.125 7.72018 2.84518 8 2.5 8C2.15482 8 1.875 7.72018 1.875 7.375V5.83333C1.875 3.6472 3.64721 1.875 5.83333 1.875H7.375C7.72018 1.875 8 2.15482 8 2.5C8 2.84518 7.72018 3.125 7.375 3.125H5.83333ZM12 2.5C12 2.15482 12.2798 1.875 12.625 1.875H14.1667C16.3528 1.875 18.125 3.64721 18.125 5.83333V7.375C18.125 7.72018 17.8452 8 17.5 8C17.1548 8 16.875 7.72018 16.875 7.375V5.83333C16.875 4.33756 15.6624 3.125 14.1667 3.125H12.625C12.2798 3.125 12 2.84518 12 2.5ZM2.5 12C2.84518 12 3.125 12.2798 3.125 12.625V14.1667C3.125 15.6624 4.33756 16.875 5.83333 16.875H7.375C7.72018 16.875 8 17.1548 8 17.5C8 17.8452 7.72018 18.125 7.375 18.125H5.83333C3.6472 18.125 1.875 16.3528 1.875 14.1667V12.625C1.875 12.2798 2.15482 12 2.5 12ZM17.5 12C17.8452 12 18.125 12.2798 18.125 12.625V14.1667C18.125 16.3528 16.3528 18.125 14.1667 18.125H12.625C12.2798 18.125 12 17.8452 12 17.5C12 17.1548 12.2798 16.875 12.625 16.875H14.1667C15.6624 16.875 16.875 15.6624 16.875 14.1667V12.625C16.875 12.2798 17.1548 12 17.5 12Z" fill="#EEEEEE"/>
<path fill-rule="evenodd" clip-rule="evenodd" d="M5 10.0001C5 9.53984 5.3731 9.16675 5.83333 9.16675L14.1667 9.16675C14.6269 9.16675 15 9.53984 15 10.0001C15 10.4603 14.6269 10.8334 14.1667 10.8334L5.83333 10.8334C5.3731 10.8334 5 10.4603 5 10.0001Z" fill="#EEEEEE"/>
<path opacity="0.3" d="M15 11.667V12.5C15 13.8807 13.8807 15 12.5 15H7.5C6.11929 15 5 13.8807 5 12.5V11.667H15ZM12.5 5C13.8807 5 15 6.11929 15 7.5V8.33301H5V7.5C5 6.11929 6.11929 5 7.5 5H12.5Z" fill="#EEEEEE"/>
</svg>
